<svg width="94" height="48" viewBox="0 0 94 48" fill="none" xmlns="http://www.w3.org/2000/svg">
<g id="Cosinus logo 3" clip-path="url(#clip0_421_2424)">
<path id="Vector" d="M7.61538 47.9647C5.52923 47.9647 3.73846 47.2324 2.24308 45.7677C0.747693 44.3047 0 42.5293 0 40.4416C0 38.3554 0.747693 36.5739 2.24308 35.097C3.73846 33.6201 5.52923 32.8816 7.61538 32.8816H12.0646C12.0646 33.7108 11.7723 34.4185 11.1877 35.0016C10.6031 35.5862 9.89692 35.8785 9.06615 35.8785H7.61384C6.36923 35.8785 5.31077 36.3277 4.43692 37.2262C3.56308 38.1247 3.12615 39.1954 3.12615 40.4401C3.12615 41.6847 3.56308 42.7493 4.43692 43.6354C5.31077 44.5216 6.36923 44.9647 7.61384 44.9647H9.06615C9.89538 44.9647 10.6031 45.257 11.1877 45.8416C11.7723 46.4262 12.0646 47.1324 12.0646 47.9631H7.61538V47.9647Z" fill="url(#paint0_linear_421_2424)"/>
<path id="Vector_2" d="M20.3018 32.8831C22.388 32.8831 24.1818 33.6216 25.6834 35.0985C27.1849 36.5754 27.9357 38.357 27.9357 40.4431C27.9357 42.5293 27.1849 44.3047 25.6834 45.7693C24.1818 47.2339 22.388 47.9662 20.3018 47.9662C18.2157 47.9662 16.4249 47.2339 14.9295 45.7693C13.4342 44.3062 12.6865 42.5308 12.6865 40.4431C12.6865 38.357 13.4342 36.5754 14.9295 35.0985C16.4249 33.6216 18.2157 32.8831 20.3018 32.8831ZM20.3018 35.88C19.0572 35.88 18.0049 36.3293 17.1449 37.2277C16.2834 38.1262 15.8541 39.197 15.8541 40.4416C15.8541 41.6862 16.2849 42.7508 17.1449 43.637C18.0065 44.5231 19.0588 44.9662 20.3018 44.9662C21.5465 44.9662 22.6018 44.5231 23.4695 43.637C24.3372 42.7508 24.7711 41.6862 24.7711 40.4416C24.7711 39.197 24.3372 38.1262 23.4695 37.2277C22.6018 36.3293 21.5465 35.88 20.3018 35.88Z" fill="url(#paint1_linear_421_2424)"/>
<path id="Vector_3" d="M46.9773 47.9647C46.1096 47.9647 45.365 47.6539 44.7435 47.0308C44.1219 46.4093 43.8096 45.6647 43.8096 44.797V32.8831C44.6773 32.8831 45.4219 33.1939 46.0435 33.8154C46.665 34.437 46.9773 35.1816 46.9773 36.0493V47.9647Z" fill="url(#paint2_linear_421_2424)"/>
<path id="Vector_4" d="M60.6242 40.4432C60.6242 39.2125 60.1904 38.1432 59.3227 37.2386C58.455 36.334 57.4057 35.8817 56.175 35.8817C54.9304 35.8817 53.875 36.3309 53.0073 37.2294C52.1396 38.1278 51.7057 39.1986 51.7057 40.4432V44.7986C51.7057 45.6663 51.395 46.4109 50.7719 47.0325C50.1504 47.654 49.4057 47.9663 48.5381 47.9663V40.4448C48.5381 38.3586 49.2857 36.5771 50.7811 35.1002C52.2765 33.6232 54.0734 32.8848 56.1719 32.8848C58.2581 32.8848 60.0488 33.6232 61.5442 35.1002C63.0396 36.5771 63.7873 38.3586 63.7873 40.4448V47.9663C62.9196 47.9663 62.175 47.6555 61.5534 47.0325C60.9319 46.4109 60.6211 45.6663 60.6211 44.7986V40.4432H60.6242Z" fill="url(#paint3_linear_421_2424)"/>
<path id="Vector_5" d="M77.3457 36.0509C77.3457 35.1832 77.6565 34.4386 78.2781 33.8171C78.8996 33.1955 79.6442 32.8848 80.5119 32.8848V40.4063C80.5119 42.4925 79.7642 44.274 78.2688 45.7509C76.7734 47.2279 74.9827 47.9663 72.8965 47.9663C70.7981 47.9663 68.9996 47.2279 67.5057 45.7509C66.0104 44.274 65.2627 42.4925 65.2627 40.4063V32.8848C66.1304 32.8848 66.875 33.1955 67.4965 33.8171C68.1181 34.4386 68.4304 35.1832 68.4304 36.0509V40.4063C68.4304 41.6509 68.8642 42.7217 69.7319 43.6202C70.5996 44.5186 71.655 44.9678 72.8996 44.9678C74.1304 44.9678 75.1811 44.5155 76.0473 43.6109C76.915 42.7063 77.3488 41.6386 77.3488 40.4063V36.0509H77.3457Z" fill="url(#paint4_linear_421_2424)"/>
<path id="Vector_6" d="M35.9046 47.9799C34.5123 47.9615 33.1692 47.6646 31.8754 47.0876C30.6523 46.5415 29.8815 45.3076 29.8815 43.9676V43.2646C32.0184 44.8292 34.0615 45.6123 36.0123 45.6123C36.9015 45.6123 37.6 45.4353 38.1092 45.083C38.6184 44.7307 38.8723 44.2861 38.8723 43.7507C38.8723 43.1723 38.5384 42.6892 37.8723 42.3015C37.2061 41.9138 36.1769 41.5584 34.7846 41.2338C33.0631 40.8246 31.8046 40.2923 31.0092 39.6369C30.2138 38.9815 29.8154 38.1323 29.8154 37.0876C29.8154 35.8184 30.3384 34.7923 31.3861 34.0107C32.4323 33.2276 33.7308 32.8369 35.28 32.8369C36.3861 32.8369 37.4723 33.0076 38.5369 33.3476C39.9554 33.8015 40.8954 35.1538 40.8954 36.643V37.0246C40.1215 36.4892 39.2246 36.0384 38.2061 35.6707C37.1877 35.3046 36.2123 35.1215 35.28 35.1215C34.4477 35.1215 33.7523 35.3015 33.1938 35.6615C32.6338 36.0215 32.3554 36.4892 32.3554 37.0676C32.3554 37.6323 32.6815 38.0661 33.3338 38.3676C33.9861 38.6707 35.0661 38.9923 36.5708 39.3307C39.7969 40.0784 41.4108 41.5507 41.4108 43.7507C41.4108 45.0907 40.88 46.1369 39.8184 46.8923C38.7584 47.6461 37.4538 48.0092 35.9046 47.9799Z" fill="url(#paint5_linear_421_2424)"/>
<path id="Vector_7" d="M88.1488 47.9801C86.9211 47.9631 85.7334 47.7202 84.5842 47.2509C83.1657 46.6709 82.2534 45.2725 82.2534 43.7402V43.2631C84.3442 44.8278 86.3442 45.6109 88.2534 45.6109C89.1242 45.6109 89.8073 45.4355 90.3057 45.0816C90.8042 44.7294 91.0534 44.2847 91.0534 43.7493C91.0534 43.1708 90.7273 42.6878 90.075 42.3001C89.4227 41.9124 88.415 41.557 87.0534 41.2324C85.3688 40.8231 84.1381 40.2909 83.3581 39.6356C82.5796 38.9802 82.1904 38.1309 82.1904 37.0863C82.1904 35.8171 82.7027 34.7908 83.7273 34.0093C84.7519 33.2262 86.0227 32.8354 87.5381 32.8354C88.5781 32.8354 89.5996 32.9924 90.6011 33.3078C92.0427 33.7601 93.0319 35.0862 93.0319 36.597V37.0247C92.2734 36.4893 91.3965 36.0385 90.3996 35.6708C89.4027 35.3047 88.4488 35.1217 87.5365 35.1217C86.7227 35.1217 86.0411 35.3016 85.495 35.6616C84.9473 36.0216 84.6734 36.4893 84.6734 37.0678C84.6734 37.6324 84.9919 38.0663 85.6319 38.3694C86.2704 38.6725 87.3273 38.9939 88.8011 39.3308C91.9596 40.0785 93.5381 41.5509 93.5381 43.7509C93.5381 45.0909 93.0181 46.137 91.9796 46.8924C90.9411 47.6462 89.6642 48.0093 88.1488 47.9801Z" fill="url(#paint6_linear_421_2424)"/>
<path id="Vector_8" d="M71.7508 16.1784C70.6939 16.883 69.2677 16.6261 68.5231 15.5969L62.44 7.18305C61.4215 5.77382 59.7877 4.93843 58.0492 4.93843C55.8292 4.93843 53.7446 6.00305 52.4446 7.80305L45.3831 17.5707L44.9539 18.1646C42.9862 20.8877 39.8323 22.5 36.4739 22.5H36.0831H35.9231C32.6015 22.5 29.2677 21.2184 27.3215 18.5261L21.1339 9.55382C20.4262 8.57536 20.7092 7.21689 21.6031 6.40766C22.9892 5.22151 24.64 5.9369 25.4646 7.07843L31.0354 14.9769C32.2139 16.6061 34.1015 17.5707 36.1123 17.5707H36.8631C38.8569 17.263 39.7815 16.6461 40.8723 15.4938L48.3308 4.93997L48.4 4.84151C50.54 1.81228 54.0185 0.0107422 57.7277 0.0107422C61.0985 0.0107422 64.2646 1.6292 66.2385 4.35997L72.3585 12.8261C73.1415 13.9138 72.8662 15.4354 71.7508 16.1784Z" fill="url(#paint7_linear_421_2424)"/>
</g>
<defs>
<linearGradient id="paint0_linear_421_2424" x1="6.03122" y1="56.8812" x2="6.03122" y2="22.182" gradientUnits="userSpaceOnUse">
<stop stop-color="#36C59E"/>
<stop offset="0.1039" stop-color="#35BEA1"/>
<stop offset="0.2588" stop-color="#32A9AA"/>
<stop offset="0.4457" stop-color="#2C88B8"/>
<stop offset="0.6576" stop-color="#255ACC"/>
<stop offset="0.8873" stop-color="#1C1FE5"/>
<stop offset="1" stop-color="#1700F2"/>
</linearGradient>
<linearGradient id="paint1_linear_421_2424" x1="20.3114" y1="56.8812" x2="20.3114" y2="22.1819" gradientUnits="userSpaceOnUse">
<stop stop-color="#36C59E"/>
<stop offset="0.1039" stop-color="#35BEA1"/>
<stop offset="0.2588" stop-color="#32A9AA"/>
<stop offset="0.4457" stop-color="#2C88B8"/>
<stop offset="0.6576" stop-color="#255ACC"/>
<stop offset="0.8873" stop-color="#1C1FE5"/>
<stop offset="1" stop-color="#1700F2"/>
</linearGradient>
<linearGradient id="paint2_linear_421_2424" x1="45.3934" y1="56.8812" x2="45.3934" y2="22.1819" gradientUnits="userSpaceOnUse">
<stop stop-color="#36C59E"/>
<stop offset="0.1039" stop-color="#35BEA1"/>
<stop offset="0.2588" stop-color="#32A9AA"/>
<stop offset="0.4457" stop-color="#2C88B8"/>
<stop offset="0.6576" stop-color="#255ACC"/>
<stop offset="0.8873" stop-color="#1C1FE5"/>
<stop offset="1" stop-color="#1700F2"/>
</linearGradient>
<linearGradient id="paint3_linear_421_2424" x1="56.1662" y1="56.8813" x2="56.1662" y2="22.1821" gradientUnits="userSpaceOnUse">
<stop stop-color="#36C59E"/>
<stop offset="0.1039" stop-color="#35BEA1"/>
<stop offset="0.2588" stop-color="#32A9AA"/>
<stop offset="0.4457" stop-color="#2C88B8"/>
<stop offset="0.6576" stop-color="#255ACC"/>
<stop offset="0.8873" stop-color="#1C1FE5"/>
<stop offset="1" stop-color="#1700F2"/>
</linearGradient>
<linearGradient id="paint4_linear_421_2424" x1="72.8874" y1="56.8813" x2="72.8874" y2="22.1821" gradientUnits="userSpaceOnUse">
<stop stop-color="#36C59E"/>
<stop offset="0.1039" stop-color="#35BEA1"/>
<stop offset="0.2588" stop-color="#32A9AA"/>
<stop offset="0.4457" stop-color="#2C88B8"/>
<stop offset="0.6576" stop-color="#255ACC"/>
<stop offset="0.8873" stop-color="#1C1FE5"/>
<stop offset="1" stop-color="#1700F2"/>
</linearGradient>
<linearGradient id="paint5_linear_421_2424" x1="35.6146" y1="56.8811" x2="35.6146" y2="22.1819" gradientUnits="userSpaceOnUse">
<stop stop-color="#36C59E"/>
<stop offset="0.1039" stop-color="#35BEA1"/>
<stop offset="0.2588" stop-color="#32A9AA"/>
<stop offset="0.4457" stop-color="#2C88B8"/>
<stop offset="0.6576" stop-color="#255ACC"/>
<stop offset="0.8873" stop-color="#1C1FE5"/>
<stop offset="1" stop-color="#1700F2"/>
</linearGradient>
<linearGradient id="paint6_linear_421_2424" x1="87.8641" y1="56.8812" x2="87.8641" y2="22.182" gradientUnits="userSpaceOnUse">
<stop stop-color="#36C59E"/>
<stop offset="0.1039" stop-color="#35BEA1"/>
<stop offset="0.2588" stop-color="#32A9AA"/>
<stop offset="0.4457" stop-color="#2C88B8"/>
<stop offset="0.6576" stop-color="#255ACC"/>
<stop offset="0.8873" stop-color="#1C1FE5"/>
<stop offset="1" stop-color="#1700F2"/>
</linearGradient>
<linearGradient id="paint7_linear_421_2424" x1="20.7333" y1="11.2553" x2="72.8039" y2="11.2553" gradientUnits="userSpaceOnUse">
<stop stop-color="#36C59E"/>
<stop offset="0.1039" stop-color="#35BEA1"/>
<stop offset="0.2588" stop-color="#32A9AA"/>
<stop offset="0.4457" stop-color="#2C88B8"/>
<stop offset="0.6576" stop-color="#255ACC"/>
<stop offset="0.8873" stop-color="#1C1FE5"/>
<stop offset="1" stop-color="#1700F2"/>
</linearGradient>
<clipPath id="clip0_421_2424">
<rect width="94" height="48" fill="white"/>
</clipPath>
</defs>
</svg>
