<svg width="40" height="40" viewBox="0 0 40 40" fill="none" xmlns="http://www.w3.org/2000/svg">
<g id="Flask">
<path id="Vector" d="M34.6391 31.2141L25 15.1437V6.25H26.25C26.5816 6.25 26.8995 6.1183 27.1339 5.88388C27.3683 5.64946 27.5 5.33152 27.5 5C27.5 4.66848 27.3683 4.35054 27.1339 4.11612C26.8995 3.8817 26.5816 3.75 26.25 3.75H13.75C13.4185 3.75 13.1006 3.8817 12.8662 4.11612C12.6317 4.35054 12.5 4.66848 12.5 5C12.5 5.33152 12.6317 5.64946 12.8662 5.88388C13.1006 6.1183 13.4185 6.25 13.75 6.25H15V15.1437L5.36097 31.2141C5.13364 31.5931 5.01084 32.0256 5.00509 32.4675C4.99935 32.9094 5.11087 33.345 5.32828 33.7298C5.54569 34.1146 5.86122 34.4349 6.24272 34.658C6.62423 34.8811 7.05807 34.9991 7.50004 35H32.5C32.9424 35 33.3768 34.8826 33.759 34.6598C34.1412 34.437 34.4574 34.1168 34.6753 33.7318C34.8933 33.3469 35.0052 32.911 34.9997 32.4687C34.9941 32.0264 34.8713 31.5934 34.6438 31.2141H34.6391ZM17.3219 16.1328C17.4388 15.939 17.5004 15.7169 17.5 15.4906V6.25H22.5V15.4906C22.4996 15.7169 22.5613 15.939 22.6782 16.1328L28.65 26.0938C26.775 26.4641 24.1078 26.3078 20.5641 24.5141C18.0782 23.2563 15.7125 22.5891 13.4985 22.5125L17.3219 16.1328ZM7.50004 32.5L11.9594 25.0656C14.186 24.7937 16.6953 25.3547 19.4313 26.7406C22.4 28.2422 24.9 28.7531 26.9313 28.7531C27.9643 28.7577 28.9928 28.6157 29.986 28.3313L32.5 32.5H7.50004Z" fill="url(#paint0_linear_450_4047)"/>
</g>
<defs>
<linearGradient id="paint0_linear_450_4047" x1="39.2264" y1="3.75002" x2="2.42913" y2="4.22143" gradientUnits="userSpaceOnUse">
<stop stop-color="#1C1FE5" stop-opacity="0.68"/>
<stop offset="1" stop-color="#36C59E" stop-opacity="0.9"/>
</linearGradient>
</defs>
</svg>
