<svg width="40" height="40" viewBox="0 0 40 40" fill="none" xmlns="http://www.w3.org/2000/svg">
<g id="diamonds-four">
<path id="Vector" d="M18.1514 16.7344C18.642 17.2238 19.3068 17.4987 19.9998 17.4987C20.6929 17.4987 21.3576 17.2238 21.8483 16.7344L26.7342 11.8469C26.9769 11.6043 27.1694 11.3162 27.3008 10.9992C27.4321 10.6822 27.4997 10.3424 27.4997 9.99922C27.4997 9.65606 27.4321 9.31626 27.3008 8.99923C27.1694 8.68221 26.9769 8.39417 26.7342 8.15156L21.8483 3.26406C21.3576 2.77458 20.6929 2.49969 19.9998 2.49969C19.3068 2.49969 18.642 2.77458 18.1514 3.26406L13.2654 8.15156C13.0227 8.39417 12.8302 8.68221 12.6989 8.99923C12.5675 9.31626 12.4999 9.65606 12.4999 9.99922C12.4999 10.3424 12.5675 10.6822 12.6989 10.9992C12.8302 11.3162 13.0227 11.6043 13.2654 11.8469L18.1514 16.7344ZM15.0264 9.91875L19.9139 5.03281C19.9347 5.0122 19.9627 5.00064 19.992 5.00064C20.0213 5.00064 20.0493 5.0122 20.0701 5.03281L24.9576 9.91875C24.9772 9.94007 24.988 9.96795 24.988 9.99687C24.988 10.0258 24.9772 10.0537 24.9576 10.075L20.0795 14.9672C20.0585 14.9874 20.0305 14.9987 20.0014 14.9987C19.9722 14.9987 19.9442 14.9874 19.9233 14.9672L15.0326 10.0797C15.0117 10.0581 15 10.0293 15 9.99922C15 9.96918 15.0117 9.94032 15.0326 9.91875H15.0264ZM36.7295 18.1516L31.8482 13.2641C31.3579 12.7747 30.6934 12.4998 30.0006 12.4998C29.3078 12.4998 28.6433 12.7747 28.1529 13.2641L23.2654 18.1516C22.776 18.6422 22.5011 19.3069 22.5011 20C22.5011 20.693 22.776 21.3578 23.2654 21.8484L28.1529 26.7359C28.6433 27.2253 29.3078 27.5002 30.0006 27.5002C30.6934 27.5002 31.3579 27.2253 31.8482 26.7359L36.7357 21.8484C37.2252 21.3578 37.5001 20.693 37.5001 20C37.5001 19.3069 37.2252 18.6422 36.7357 18.1516H36.7295ZM34.9686 20.0797L30.0811 24.9672C30.0597 24.9867 30.0319 24.9976 30.0029 24.9976C29.974 24.9976 29.9461 24.9867 29.9248 24.9672L25.0373 20.0797C25.0171 20.0587 25.0058 20.0307 25.0058 20.0016C25.0058 19.9724 25.0171 19.9444 25.0373 19.9234L29.9248 15.0359C29.9461 15.0164 29.974 15.0055 30.0029 15.0055C30.0319 15.0055 30.0597 15.0164 30.0811 15.0359L34.9686 19.9234C34.9888 19.9444 35.0001 19.9724 35.0001 20.0016C35.0001 20.0307 34.9888 20.0587 34.9686 20.0797ZM16.7342 18.1516L11.8467 13.2641C11.3563 12.7747 10.6918 12.4998 9.99903 12.4998C9.30624 12.4998 8.64175 12.7747 8.15138 13.2641L3.26388 18.1516C2.7744 18.6422 2.49951 19.3069 2.49951 20C2.49951 20.693 2.7744 21.3578 3.26388 21.8484L8.15138 26.7359C8.64175 27.2253 9.30624 27.5002 9.99903 27.5002C10.6918 27.5002 11.3563 27.2253 11.8467 26.7359L16.7342 21.8484C17.2237 21.3578 17.4986 20.693 17.4986 20C17.4986 19.3069 17.2237 18.6422 16.7342 18.1516ZM14.967 20.0797L10.0795 24.9672C10.0582 24.9867 10.0303 24.9976 10.0014 24.9976C9.97245 24.9976 9.94458 24.9867 9.92325 24.9672L5.03106 20.0797C5.01082 20.0587 4.99951 20.0307 4.99951 20.0016C4.99951 19.9724 5.01082 19.9444 5.03106 19.9234L9.91856 15.0328C9.93989 15.0133 9.96776 15.0024 9.99669 15.0024C10.0256 15.0024 10.0535 15.0133 10.0748 15.0328L14.9623 19.9203C14.9731 19.9304 14.9818 19.9426 14.9879 19.9561C14.994 19.9696 14.9973 19.9842 14.9978 19.999C14.9982 20.0138 14.9957 20.0286 14.9904 20.0424C14.9851 20.0563 14.9772 20.0689 14.967 20.0797ZM21.842 23.2656C21.3514 22.7761 20.6866 22.5013 19.9936 22.5013C19.3005 22.5013 18.6358 22.7761 18.1451 23.2656L13.2654 28.1531C13.0227 28.3957 12.8302 28.6838 12.6989 29.0008C12.5675 29.3178 12.4999 29.6576 12.4999 30.0008C12.4999 30.3439 12.5675 30.6837 12.6989 31.0008C12.8302 31.3178 13.0227 31.6058 13.2654 31.8484L18.1514 36.7359C18.642 37.2254 19.3068 37.5003 19.9998 37.5003C20.6929 37.5003 21.3576 37.2254 21.8483 36.7359L26.7342 31.8484C26.9769 31.6058 27.1694 31.3178 27.3008 31.0008C27.4321 30.6837 27.4997 30.3439 27.4997 30.0008C27.4997 29.6576 27.4321 29.3178 27.3008 29.0008C27.1694 28.6838 26.9769 28.3957 26.7342 28.1531L21.842 23.2656ZM24.967 30.0812L20.0795 34.9672C20.0587 34.9878 20.0306 34.9994 20.0014 34.9994C19.9721 34.9994 19.944 34.9878 19.9233 34.9672L15.0326 30.0812C15.0131 30.0599 15.0022 30.032 15.0022 30.0031C15.0022 29.9742 15.0131 29.9463 15.0326 29.925L19.9201 25.0375C19.9411 25.0173 19.9691 25.0059 19.9983 25.0059C20.0274 25.0059 20.0554 25.0173 20.0764 25.0375L24.9639 29.925C24.9839 29.9459 24.9953 29.9736 24.9958 30.0025C24.9964 30.0314 24.9861 30.0595 24.967 30.0812Z" fill="url(#paint0_linear_450_4053)"/>
</g>
<defs>
<linearGradient id="paint0_linear_450_4053" x1="42.432" y1="2.49972" x2="-0.505489" y2="3.0728" gradientUnits="userSpaceOnUse">
<stop stop-color="#1C1FE5" stop-opacity="0.68"/>
<stop offset="1" stop-color="#36C59E" stop-opacity="0.9"/>
</linearGradient>
</defs>
</svg>
